<?xml version="1.0" encoding="UTF-8" standalone="no"?>
<!-- Created with Inkscape (http://www.inkscape.org/) -->
<svg
   xmlns:dc="http://purl.org/dc/elements/1.1/"
   xmlns:cc="http://creativecommons.org/ns#"
   xmlns:rdf="http://www.w3.org/1999/02/22-rdf-syntax-ns#"
   xmlns:svg="http://www.w3.org/2000/svg"
   xmlns="http://www.w3.org/2000/svg"
   xmlns:sodipodi="http://sodipodi.sourceforge.net/DTD/sodipodi-0.dtd"
   xmlns:inkscape="http://www.inkscape.org/namespaces/inkscape"
   width="744.09448819"
   height="1052.3622047"
   id="svg2"
   sodipodi:version="0.32"
   inkscape:version="0.46"
   sodipodi:docname="Qgear.svg"
   inkscape:output_extension="org.inkscape.output.svg.inkscape">
  <defs
     id="defs4">
    <inkscape:perspective
       sodipodi:type="inkscape:persp3d"
       inkscape:vp_x="0 : 526.18109 : 1"
       inkscape:vp_y="0 : 1000 : 0"
       inkscape:vp_z="744.09448 : 526.18109 : 1"
       inkscape:persp3d-origin="372.04724 : 350.78739 : 1"
       id="perspective10" />
  </defs>
  <sodipodi:namedview
     id="base"
     pagecolor="#ffffff"
     bordercolor="#666666"
     borderopacity="1.0"
     gridtolerance="10000"
     guidetolerance="10"
     objecttolerance="10"
     inkscape:pageopacity="0.0"
     inkscape:pageshadow="2"
     inkscape:zoom="3.257747"
     inkscape:cx="276.91434"
     inkscape:cy="304.22213"
     inkscape:document-units="px"
     inkscape:current-layer="layer1"
     showgrid="true"
     showguides="false"
     inkscape:window-width="1642"
     inkscape:window-height="1024"
     inkscape:window-x="36"
     inkscape:window-y="5">
    <inkscape:grid
       type="xygrid"
       id="grid3161" />
  </sodipodi:namedview>
  <metadata
     id="metadata7">
    <rdf:RDF>
      <cc:Work
         rdf:about="">
        <dc:format>image/svg+xml</dc:format>
        <dc:type
           rdf:resource="http://purl.org/dc/dcmitype/StillImage" />
      </cc:Work>
    </rdf:RDF>
  </metadata>
  <g
     inkscape:label="Layer 1"
     inkscape:groupmode="layer"
     id="layer1">
    <path
       transform="matrix(0.3521346,0,0,0.3675652,507.81998,420.70036)"
       d="M 432.14286,766.29077 A 56.785713,56.785713 0 1 1 318.57143,766.29077 A 56.785713,56.785713 0 1 1 432.14286,766.29077 z"
       sodipodi:ry="56.785713"
       sodipodi:rx="56.785713"
       sodipodi:cy="766.29077"
       sodipodi:cx="375.35715"
       id="path3159"
       style="fill:#000000;fill-opacity:0.22943726;fill-rule:evenodd;stroke:#000000;stroke-width:1px;stroke-linecap:butt;stroke-linejoin:miter;stroke-opacity:1"
       sodipodi:type="arc" />
    <path
       style="fill:#000000;fill-opacity:1;stroke:#000000;stroke-opacity:1"
       d="M 220 662.375 L 220 681.0625 C 212.89534 682.38903 206.58856 685.12335 201.0625 689.28125 L 187.5625 675.78125 L 173 690.375 L 187.5625 704.9375 C 184.66836 710.22038 182.79619 716.033 181.875 722.375 L 160 722.375 L 160 742.375 L 182.125 742.375 C 183.22296 748.71352 185.31351 754.53041 188.4375 759.78125 L 173.4375 774.78125 L 187.5625 788.9375 L 201.90625 774.59375 C 207.22272 778.3958 213.26488 780.89874 220 782.15625 L 220 802.375 L 240 802.375 L 240 782.28125 C 241.09682 782.08561 242.18524 781.85993 243.25 781.59375 C 247.26726 780.58941 251.09779 779.13612 254.75 777.21875 C 257.58031 779.86655 261.08123 782.31116 265.28125 784.59375 C 270.66804 787.42414 275.71843 789.04105 280.375 789.40625 L 287.46875 772 C 283.72521 771.5435 280.09198 770.55217 276.53125 769 C 273.06163 767.35655 270.78304 765.70596 269.6875 764.0625 C 273.06562 759.40606 275.5752 754.38695 277.21875 749 C 277.90996 746.8535 278.42795 744.65198 278.84375 742.375 L 300 742.375 L 300 722.375 L 279.15625 722.375 C 278.16494 715.54888 276.02682 709.34916 272.75 703.75 L 286.5625 689.9375 L 272.4375 675.78125 L 259.375 688.84375 C 253.72866 684.73655 247.26211 682.11529 240 680.90625 L 240 662.375 L 220 662.375 z M 230.53125 700.8125 C 238.93108 700.81258 245.36983 704.0488 249.84375 710.53125 C 253.58711 716.10081 255.43743 723.16758 255.4375 731.75 C 255.43742 740.24123 253.58711 747.27428 249.84375 752.84375 C 245.36983 759.4176 238.93108 762.71878 230.53125 762.71875 C 221.7661 762.71877 215.22872 759.31897 210.9375 752.5625 C 207.37665 747.08435 205.59373 740.14995 205.59375 731.75 C 205.59372 721.25019 207.97095 713.35812 212.71875 708.0625 C 217.00995 703.2235 222.95304 700.81261 230.53125 700.8125 z "
       id="rect3165" />
    <path
       style="font-size:136.95475769px;font-style:normal;font-weight:normal;fill:#cc0000;fill-opacity:1;stroke:#000000;stroke-width:1px;stroke-linecap:butt;stroke-linejoin:miter;stroke-opacity:1;font-family:Bitstream Vera Sans"
       d="M 405.07423,729.56727 C 405.07415,720.98483 403.20244,713.90884 399.45908,708.33928 C 394.98516,701.85683 388.54829,698.61557 380.14846,698.61549 C 372.57025,698.61557 366.63555,701.0351 362.34435,705.8741 C 357.59655,711.16975 355.22267,719.06746 355.2227,729.56727 C 355.22267,737.9672 357.00308,744.90624 360.56393,750.38439 C 364.85514,757.14085 371.38331,760.51906 380.14846,760.51904 C 388.54829,760.51906 394.98516,757.23215 399.45908,750.6583 C 403.20244,745.08884 405.07415,738.0585 405.07423,729.56727 M 437.12164,769.96892 L 430,787.36218 C 425.34343,786.99696 420.32176,785.39915 414.93497,782.56876 C 410.73494,780.28618 407.21977,777.821 404.38946,775.1732 C 400.73725,777.09057 396.90252,778.55142 392.88526,779.55576 C 388.86785,780.56009 384.62226,781.06226 380.14846,781.06226 C 365.1747,781.06226 353.07705,775.90363 343.85545,765.58637 C 335.18164,755.90826 330.84475,743.9019 330.84475,729.56727 C 330.84475,715.23273 335.18164,703.22638 343.85545,693.54817 C 353.07705,683.231 365.1747,678.07238 380.14846,678.07228 C 395.12211,678.07238 407.21977,683.231 416.44147,693.54817 C 425.11518,703.22638 429.45207,715.23273 429.45218,729.56727 C 429.45207,735.77593 428.58469,741.57367 426.85004,746.96052 C 425.20648,752.34744 422.69564,757.36911 419.31752,762.02555 C 420.41307,763.66902 422.69564,765.31247 426.16526,766.95592 C 429.72598,768.50808 433.3781,769.51242 437.12164,769.96892"
       id="text3253" />
  </g>
</svg>
